<?xml version="1.0" encoding="utf-8"?>
<!-- Generator: Adobe Illustrator 24.3.0, SVG Export Plug-In . SVG Version: 6.00 Build 0)  -->
<svg version="1.1" id="Capa_1" xmlns="http://www.w3.org/2000/svg" xmlns:xlink="http://www.w3.org/1999/xlink" x="0px" y="0px"
	 viewBox="0 0 595 595" style="enable-background:new 0 0 595 595;" xml:space="preserve">
<style type="text/css">
	.st0{fill:#45C7AC;stroke:#333333;stroke-width:40;}
</style>
<path class="st0" d="M499.5,96.5c-26.2-26.2-56.6-46.7-90.6-61.1C373.8,20.6,336.5,13,298,13c-38.5,0-75.8,7.5-110.9,22.4
	c-33.9,14.4-64.4,34.9-90.6,61.1c-26.2,26.2-46.7,56.6-61.1,90.6C20.5,222.2,13,259.6,13,298s7.5,75.8,22.4,110.9
	c14.4,33.9,34.9,64.4,61.1,90.6c26.2,26.2,56.6,46.7,90.6,61.1C222.2,575.5,259.5,583,298,583c38.5,0,75.8-7.5,110.9-22.4
	c33.9-14.4,64.4-34.9,90.6-61.1c26.2-26.2,46.7-56.6,61.1-90.6C575.5,373.8,583,336.5,583,298s-7.5-75.8-22.4-110.9
	C546.2,153.1,525.7,122.6,499.5,96.5z"/>
</svg>
